<svg version="1.1" id="Capa_1" xmlns="http://www.w3.org/2000/svg" xmlns:xlink="http://www.w3.org/1999/xlink" x="0px" y="0px" width="50px" height="50px" viewBox="0 0 413.12 413.12" style="enable-background:new 0 0 413.12 413.12;" xml:space="preserve" fill="#fff"><path d="M289.537,49.617c-66.143-66.156-173.774-66.156-239.926,0c-66.148,66.146-66.148,173.774,0,239.916c63.881,63.884,166.438,66.059,232.972,6.562l13.45,13.45c-3.351,8.578-1.596,18.678,5.325,25.604l70.973,70.973c9.334,9.334,24.465,9.329,33.789,0c9.334-9.329,9.334-24.46,0-33.794l-70.967-70.959c-6.927-6.926-17.035-8.681-25.604-5.33l-13.45-13.455C355.604,216.045,353.42,113.49,289.537,49.617z M69.888,269.269c-54.969-54.969-54.969-144.409,0-199.378c54.969-54.974,144.411-54.969,199.38,0s54.969,144.413,0,199.382S124.856,324.237,69.888,269.269z"/><path d="M103.381,102.149c24.01-24.007,51.914-41.439,81.259-52.304c-33.244-1.899-68.849,11.038-96.17,38.354c-27.699,27.699-40.599,63.92-38.247,97.57C61.009,155.56,78.725,126.806,103.381,102.149z"/></svg>