<svg xmlns="http://www.w3.org/2000/svg" xmlns:xlink="http://www.w3.org/1999/xlink" version="1.1" id="Capa_1" x="0px" y="0px" width="512px" height="512px" viewBox="0 0 392.581 392.581" style="enable-background:new 0 0 392.581 392.581;" xml:space="preserve">
		<path d="M16.984,179.318C7.62,179.318,0,186.938,0,196.303c0,9.353,7.614,16.973,16.984,16.973h71.499v-33.958H16.984z" fill="#FFFFFF"/>
		<path d="M335.992,44.252H145.091c-31.213,0-56.607,25.382-56.607,56.589v1.771v76.699h152.969l-32.714-32.717    c-6.611-6.623-6.611-17.396,0-24.016c3.207-3.207,7.464-4.975,11.998-4.975c4.551,0,8.809,1.769,12.021,4.975l61.705,61.708    c1.549,1.543,2.774,3.372,3.65,5.443c0.907,2.23,1.327,4.383,1.327,6.572c0,2.183-0.414,4.339-1.261,6.403    c-0.906,2.181-2.132,4-3.669,5.567l-61.753,61.741c-3.225,3.206-7.494,4.966-12.021,4.966c-4.528,0-8.81-1.76-12.004-4.966    c-6.611-6.636-6.611-17.408,0-24.025l32.72-32.714H88.483v18.572v34.102v25.803c0,31.194,25.395,56.577,56.607,56.577h190.901    c31.213,0,56.589-25.383,56.589-56.577V100.848C392.581,69.634,367.205,44.252,335.992,44.252z" fill="#FFFFFF"/>

</svg>
